# xmcd
#
# Track frame offsets:
#	150
#	22082
#	26287
#	48222
#
# Disc length: 697 seconds
#
# Revision: 1
# Processed by: cddbd v1.5PL3 Copyright (c) Steve Scherf et al.
# Submitted via: CDex 1.50Beta5
#
DISCID=2502b704
DTITLE=嵐 - Ｐｉｃａ☆Ｎｃｈｉ
DYEAR=1900
DGENRE=Pop
TTITLE0=Ｐｉｃａ☆Ｎｃｈｉ
TTITLE1=道
TTITLE2=Ｐｉｃａ☆Ｎｃｈｉ(オリジナル・カラオケ）
TTITLE3=道(オリジナル・カラオケ）
EXTD=
EXTT0=
EXTT1=
EXTT2=
EXTT3=
PLAYORDER=
